<mxfile host="Electron" modified="2023-08-30T11:24:55.196Z" agent="Mozilla/5.0 (Macintosh; Intel Mac OS X 10_15_7) AppleWebKit/537.36 (KHTML, like Gecko) draw.io/21.6.8 Chrome/114.0.5735.289 Electron/25.5.0 Safari/537.36" etag="8bJWbmwSD891FHY2My1K" version="21.6.8" type="device">
  <diagram name="Page-1" id="0jwR-zEwnmCePSWY2F06">
    <mxGraphModel dx="1468" dy="1325" grid="1" gridSize="10" guides="1" tooltips="1" connect="1" arrows="1" fold="1" page="0" pageScale="1" pageWidth="827" pageHeight="1169" math="0" shadow="0">
      <root>
        <mxCell id="0" />
        <mxCell id="1" parent="0" />
        <mxCell id="v8TpoAdIlQ8JZEhRbZlm-1" value="GeometricObject" style="swimlane;fontStyle=1;align=center;verticalAlign=top;childLayout=stackLayout;horizontal=1;startSize=26;horizontalStack=0;resizeParent=1;resizeParentMax=0;resizeLast=0;collapsible=1;marginBottom=0;whiteSpace=wrap;html=1;" vertex="1" parent="1">
          <mxGeometry x="240" y="-220" width="160" height="170" as="geometry" />
        </mxCell>
        <mxCell id="v8TpoAdIlQ8JZEhRbZlm-2" value="- color: String&lt;br&gt;- filled: boolean&lt;br&gt;- dateCreated: java.util.Date" style="text;strokeColor=none;fillColor=none;align=left;verticalAlign=top;spacingLeft=4;spacingRight=4;overflow=hidden;rotatable=0;points=[[0,0.5],[1,0.5]];portConstraint=eastwest;whiteSpace=wrap;html=1;" vertex="1" parent="v8TpoAdIlQ8JZEhRbZlm-1">
          <mxGeometry y="26" width="160" height="64" as="geometry" />
        </mxCell>
        <mxCell id="v8TpoAdIlQ8JZEhRbZlm-3" value="" style="line;strokeWidth=1;fillColor=none;align=left;verticalAlign=middle;spacingTop=-1;spacingLeft=3;spacingRight=3;rotatable=0;labelPosition=right;points=[];portConstraint=eastwest;strokeColor=inherit;" vertex="1" parent="v8TpoAdIlQ8JZEhRbZlm-1">
          <mxGeometry y="90" width="160" height="8" as="geometry" />
        </mxCell>
        <mxCell id="v8TpoAdIlQ8JZEhRbZlm-4" value="+ GeometricObject()&lt;br&gt;+ GeometricObject( color: String, filled: boolean)&lt;br&gt;+ toString(): String" style="text;strokeColor=none;fillColor=none;align=left;verticalAlign=top;spacingLeft=4;spacingRight=4;overflow=hidden;rotatable=0;points=[[0,0.5],[1,0.5]];portConstraint=eastwest;whiteSpace=wrap;html=1;" vertex="1" parent="v8TpoAdIlQ8JZEhRbZlm-1">
          <mxGeometry y="98" width="160" height="72" as="geometry" />
        </mxCell>
        <mxCell id="v8TpoAdIlQ8JZEhRbZlm-10" style="edgeStyle=orthogonalEdgeStyle;rounded=0;orthogonalLoop=1;jettySize=auto;html=1;endArrow=block;endFill=0;" edge="1" parent="1" source="v8TpoAdIlQ8JZEhRbZlm-5" target="v8TpoAdIlQ8JZEhRbZlm-1">
          <mxGeometry relative="1" as="geometry" />
        </mxCell>
        <mxCell id="v8TpoAdIlQ8JZEhRbZlm-5" value="Triangle" style="swimlane;fontStyle=1;align=center;verticalAlign=top;childLayout=stackLayout;horizontal=1;startSize=26;horizontalStack=0;resizeParent=1;resizeParentMax=0;resizeLast=0;collapsible=1;marginBottom=0;whiteSpace=wrap;html=1;" vertex="1" parent="1">
          <mxGeometry x="240" y="-10" width="160" height="210" as="geometry" />
        </mxCell>
        <mxCell id="v8TpoAdIlQ8JZEhRbZlm-6" value="- side1: double&lt;br&gt;- side2: double&lt;br&gt;- side3: double" style="text;strokeColor=none;fillColor=none;align=left;verticalAlign=top;spacingLeft=4;spacingRight=4;overflow=hidden;rotatable=0;points=[[0,0.5],[1,0.5]];portConstraint=eastwest;whiteSpace=wrap;html=1;" vertex="1" parent="v8TpoAdIlQ8JZEhRbZlm-5">
          <mxGeometry y="26" width="160" height="64" as="geometry" />
        </mxCell>
        <mxCell id="v8TpoAdIlQ8JZEhRbZlm-7" value="" style="line;strokeWidth=1;fillColor=none;align=left;verticalAlign=middle;spacingTop=-1;spacingLeft=3;spacingRight=3;rotatable=0;labelPosition=right;points=[];portConstraint=eastwest;strokeColor=inherit;" vertex="1" parent="v8TpoAdIlQ8JZEhRbZlm-5">
          <mxGeometry y="90" width="160" height="8" as="geometry" />
        </mxCell>
        <mxCell id="v8TpoAdIlQ8JZEhRbZlm-8" value="+ Triangle()&lt;br&gt;+ Triangle(side1: double, side2: double, side3: double)&lt;br&gt;+ getArea(): double&lt;br&gt;+ getPerimeter(): double&lt;br&gt;+ toString(): String" style="text;strokeColor=none;fillColor=none;align=left;verticalAlign=top;spacingLeft=4;spacingRight=4;overflow=hidden;rotatable=0;points=[[0,0.5],[1,0.5]];portConstraint=eastwest;whiteSpace=wrap;html=1;" vertex="1" parent="v8TpoAdIlQ8JZEhRbZlm-5">
          <mxGeometry y="98" width="160" height="112" as="geometry" />
        </mxCell>
        <mxCell id="v8TpoAdIlQ8JZEhRbZlm-11" value="Getters/setters are omitted" style="text;html=1;strokeColor=none;fillColor=none;align=center;verticalAlign=middle;whiteSpace=wrap;rounded=0;" vertex="1" parent="1">
          <mxGeometry x="190" y="260" width="240" height="30" as="geometry" />
        </mxCell>
        <mxCell id="v8TpoAdIlQ8JZEhRbZlm-12" value="Person" style="swimlane;fontStyle=1;align=center;verticalAlign=top;childLayout=stackLayout;horizontal=1;startSize=26;horizontalStack=0;resizeParent=1;resizeParentMax=0;resizeLast=0;collapsible=1;marginBottom=0;whiteSpace=wrap;html=1;" vertex="1" parent="1">
          <mxGeometry x="240" y="370" width="160" height="160" as="geometry" />
        </mxCell>
        <mxCell id="v8TpoAdIlQ8JZEhRbZlm-13" value="- name: String&lt;br&gt;- email: String&lt;br&gt;- phoneNumber: String&lt;br&gt;- address: String" style="text;strokeColor=none;fillColor=none;align=left;verticalAlign=top;spacingLeft=4;spacingRight=4;overflow=hidden;rotatable=0;points=[[0,0.5],[1,0.5]];portConstraint=eastwest;whiteSpace=wrap;html=1;" vertex="1" parent="v8TpoAdIlQ8JZEhRbZlm-12">
          <mxGeometry y="26" width="160" height="64" as="geometry" />
        </mxCell>
        <mxCell id="v8TpoAdIlQ8JZEhRbZlm-14" value="" style="line;strokeWidth=1;fillColor=none;align=left;verticalAlign=middle;spacingTop=-1;spacingLeft=3;spacingRight=3;rotatable=0;labelPosition=right;points=[];portConstraint=eastwest;strokeColor=inherit;" vertex="1" parent="v8TpoAdIlQ8JZEhRbZlm-12">
          <mxGeometry y="90" width="160" height="8" as="geometry" />
        </mxCell>
        <mxCell id="v8TpoAdIlQ8JZEhRbZlm-15" value="+ Person(name: String)&lt;br&gt;+ toString(): String" style="text;strokeColor=none;fillColor=none;align=left;verticalAlign=top;spacingLeft=4;spacingRight=4;overflow=hidden;rotatable=0;points=[[0,0.5],[1,0.5]];portConstraint=eastwest;whiteSpace=wrap;html=1;" vertex="1" parent="v8TpoAdIlQ8JZEhRbZlm-12">
          <mxGeometry y="98" width="160" height="62" as="geometry" />
        </mxCell>
        <mxCell id="v8TpoAdIlQ8JZEhRbZlm-25" value="Employee" style="swimlane;fontStyle=1;align=center;verticalAlign=top;childLayout=stackLayout;horizontal=1;startSize=26;horizontalStack=0;resizeParent=1;resizeParentMax=0;resizeLast=0;collapsible=1;marginBottom=0;whiteSpace=wrap;html=1;" vertex="1" parent="1">
          <mxGeometry x="380" y="610" width="160" height="190" as="geometry" />
        </mxCell>
        <mxCell id="v8TpoAdIlQ8JZEhRbZlm-26" value="- office: String&lt;br&gt;- salary: double&lt;br&gt;- dateHired: java.util.Date" style="text;strokeColor=none;fillColor=none;align=left;verticalAlign=top;spacingLeft=4;spacingRight=4;overflow=hidden;rotatable=0;points=[[0,0.5],[1,0.5]];portConstraint=eastwest;whiteSpace=wrap;html=1;" vertex="1" parent="v8TpoAdIlQ8JZEhRbZlm-25">
          <mxGeometry y="26" width="160" height="64" as="geometry" />
        </mxCell>
        <mxCell id="v8TpoAdIlQ8JZEhRbZlm-27" value="" style="line;strokeWidth=1;fillColor=none;align=left;verticalAlign=middle;spacingTop=-1;spacingLeft=3;spacingRight=3;rotatable=0;labelPosition=right;points=[];portConstraint=eastwest;strokeColor=inherit;" vertex="1" parent="v8TpoAdIlQ8JZEhRbZlm-25">
          <mxGeometry y="90" width="160" height="8" as="geometry" />
        </mxCell>
        <mxCell id="v8TpoAdIlQ8JZEhRbZlm-28" value="+ Employee(name: String)&lt;br&gt;+ Employee (name: String, salary: double, dateHired: java.util.Date)&lt;br&gt;+ toString(): String" style="text;strokeColor=none;fillColor=none;align=left;verticalAlign=top;spacingLeft=4;spacingRight=4;overflow=hidden;rotatable=0;points=[[0,0.5],[1,0.5]];portConstraint=eastwest;whiteSpace=wrap;html=1;" vertex="1" parent="v8TpoAdIlQ8JZEhRbZlm-25">
          <mxGeometry y="98" width="160" height="92" as="geometry" />
        </mxCell>
        <mxCell id="v8TpoAdIlQ8JZEhRbZlm-30" value="Student" style="swimlane;fontStyle=1;align=center;verticalAlign=top;childLayout=stackLayout;horizontal=1;startSize=26;horizontalStack=0;resizeParent=1;resizeParentMax=0;resizeLast=0;collapsible=1;marginBottom=0;whiteSpace=wrap;html=1;" vertex="1" parent="1">
          <mxGeometry x="100" y="580" width="160" height="140" as="geometry" />
        </mxCell>
        <mxCell id="v8TpoAdIlQ8JZEhRbZlm-31" value="- status: int" style="text;strokeColor=none;fillColor=none;align=left;verticalAlign=top;spacingLeft=4;spacingRight=4;overflow=hidden;rotatable=0;points=[[0,0.5],[1,0.5]];portConstraint=eastwest;whiteSpace=wrap;html=1;" vertex="1" parent="v8TpoAdIlQ8JZEhRbZlm-30">
          <mxGeometry y="26" width="160" height="26" as="geometry" />
        </mxCell>
        <mxCell id="v8TpoAdIlQ8JZEhRbZlm-32" value="" style="line;strokeWidth=1;fillColor=none;align=left;verticalAlign=middle;spacingTop=-1;spacingLeft=3;spacingRight=3;rotatable=0;labelPosition=right;points=[];portConstraint=eastwest;strokeColor=inherit;" vertex="1" parent="v8TpoAdIlQ8JZEhRbZlm-30">
          <mxGeometry y="52" width="160" height="8" as="geometry" />
        </mxCell>
        <mxCell id="v8TpoAdIlQ8JZEhRbZlm-33" value="+ Student(name: String)&lt;br&gt;+ Student(name: String, status: int)&lt;br&gt;+ toString(): String" style="text;strokeColor=none;fillColor=none;align=left;verticalAlign=top;spacingLeft=4;spacingRight=4;overflow=hidden;rotatable=0;points=[[0,0.5],[1,0.5]];portConstraint=eastwest;whiteSpace=wrap;html=1;" vertex="1" parent="v8TpoAdIlQ8JZEhRbZlm-30">
          <mxGeometry y="60" width="160" height="80" as="geometry" />
        </mxCell>
        <mxCell id="v8TpoAdIlQ8JZEhRbZlm-35" value="Faculty" style="swimlane;fontStyle=1;align=center;verticalAlign=top;childLayout=stackLayout;horizontal=1;startSize=26;horizontalStack=0;resizeParent=1;resizeParentMax=0;resizeLast=0;collapsible=1;marginBottom=0;whiteSpace=wrap;html=1;" vertex="1" parent="1">
          <mxGeometry x="180" y="790" width="160" height="188" as="geometry" />
        </mxCell>
        <mxCell id="v8TpoAdIlQ8JZEhRbZlm-36" value="- officeHours: String&lt;br&gt;- rank: String" style="text;strokeColor=none;fillColor=none;align=left;verticalAlign=top;spacingLeft=4;spacingRight=4;overflow=hidden;rotatable=0;points=[[0,0.5],[1,0.5]];portConstraint=eastwest;whiteSpace=wrap;html=1;" vertex="1" parent="v8TpoAdIlQ8JZEhRbZlm-35">
          <mxGeometry y="26" width="160" height="54" as="geometry" />
        </mxCell>
        <mxCell id="v8TpoAdIlQ8JZEhRbZlm-37" value="" style="line;strokeWidth=1;fillColor=none;align=left;verticalAlign=middle;spacingTop=-1;spacingLeft=3;spacingRight=3;rotatable=0;labelPosition=right;points=[];portConstraint=eastwest;strokeColor=inherit;" vertex="1" parent="v8TpoAdIlQ8JZEhRbZlm-35">
          <mxGeometry y="80" width="160" height="8" as="geometry" />
        </mxCell>
        <mxCell id="v8TpoAdIlQ8JZEhRbZlm-38" value="+ Faculty(name: String)&lt;br&gt;+ Faculty(name: String, officeHours: String, rank: String)&lt;br&gt;+ toString()" style="text;strokeColor=none;fillColor=none;align=left;verticalAlign=top;spacingLeft=4;spacingRight=4;overflow=hidden;rotatable=0;points=[[0,0.5],[1,0.5]];portConstraint=eastwest;whiteSpace=wrap;html=1;" vertex="1" parent="v8TpoAdIlQ8JZEhRbZlm-35">
          <mxGeometry y="88" width="160" height="100" as="geometry" />
        </mxCell>
        <mxCell id="v8TpoAdIlQ8JZEhRbZlm-39" value="Staff" style="swimlane;fontStyle=1;align=center;verticalAlign=top;childLayout=stackLayout;horizontal=1;startSize=26;horizontalStack=0;resizeParent=1;resizeParentMax=0;resizeLast=0;collapsible=1;marginBottom=0;whiteSpace=wrap;html=1;" vertex="1" parent="1">
          <mxGeometry x="580" y="790" width="160" height="140" as="geometry" />
        </mxCell>
        <mxCell id="v8TpoAdIlQ8JZEhRbZlm-40" value="- title: String" style="text;strokeColor=none;fillColor=none;align=left;verticalAlign=top;spacingLeft=4;spacingRight=4;overflow=hidden;rotatable=0;points=[[0,0.5],[1,0.5]];portConstraint=eastwest;whiteSpace=wrap;html=1;" vertex="1" parent="v8TpoAdIlQ8JZEhRbZlm-39">
          <mxGeometry y="26" width="160" height="26" as="geometry" />
        </mxCell>
        <mxCell id="v8TpoAdIlQ8JZEhRbZlm-41" value="" style="line;strokeWidth=1;fillColor=none;align=left;verticalAlign=middle;spacingTop=-1;spacingLeft=3;spacingRight=3;rotatable=0;labelPosition=right;points=[];portConstraint=eastwest;strokeColor=inherit;" vertex="1" parent="v8TpoAdIlQ8JZEhRbZlm-39">
          <mxGeometry y="52" width="160" height="8" as="geometry" />
        </mxCell>
        <mxCell id="v8TpoAdIlQ8JZEhRbZlm-42" value="+ Staff(name: String)&lt;br&gt;+ Staff(name: String, title: String)&lt;br&gt;+ toString()" style="text;strokeColor=none;fillColor=none;align=left;verticalAlign=top;spacingLeft=4;spacingRight=4;overflow=hidden;rotatable=0;points=[[0,0.5],[1,0.5]];portConstraint=eastwest;whiteSpace=wrap;html=1;" vertex="1" parent="v8TpoAdIlQ8JZEhRbZlm-39">
          <mxGeometry y="60" width="160" height="80" as="geometry" />
        </mxCell>
        <mxCell id="v8TpoAdIlQ8JZEhRbZlm-43" value="" style="endArrow=blockThin;html=1;rounded=0;endFill=0;entryX=-0.021;entryY=0.389;entryDx=0;entryDy=0;entryPerimeter=0;exitX=0.5;exitY=0;exitDx=0;exitDy=0;" edge="1" parent="1" source="v8TpoAdIlQ8JZEhRbZlm-35" target="v8TpoAdIlQ8JZEhRbZlm-28">
          <mxGeometry width="50" height="50" relative="1" as="geometry">
            <mxPoint x="280" y="830" as="sourcePoint" />
            <mxPoint x="370" y="740" as="targetPoint" />
          </mxGeometry>
        </mxCell>
        <mxCell id="v8TpoAdIlQ8JZEhRbZlm-44" value="" style="endArrow=blockThin;html=1;rounded=0;entryX=1.009;entryY=0.346;entryDx=0;entryDy=0;entryPerimeter=0;endFill=0;exitX=0.5;exitY=0;exitDx=0;exitDy=0;" edge="1" parent="1" source="v8TpoAdIlQ8JZEhRbZlm-39" target="v8TpoAdIlQ8JZEhRbZlm-28">
          <mxGeometry width="50" height="50" relative="1" as="geometry">
            <mxPoint x="620" y="830" as="sourcePoint" />
            <mxPoint x="670" y="780" as="targetPoint" />
          </mxGeometry>
        </mxCell>
        <mxCell id="v8TpoAdIlQ8JZEhRbZlm-45" value="" style="endArrow=block;html=1;rounded=0;entryX=0;entryY=0.5;entryDx=0;entryDy=0;exitX=0.5;exitY=0;exitDx=0;exitDy=0;endFill=0;" edge="1" parent="1" source="v8TpoAdIlQ8JZEhRbZlm-30" target="v8TpoAdIlQ8JZEhRbZlm-15">
          <mxGeometry width="50" height="50" relative="1" as="geometry">
            <mxPoint x="330" y="680" as="sourcePoint" />
            <mxPoint x="380" y="630" as="targetPoint" />
          </mxGeometry>
        </mxCell>
        <mxCell id="v8TpoAdIlQ8JZEhRbZlm-46" value="" style="endArrow=block;html=1;rounded=0;entryX=1;entryY=0.5;entryDx=0;entryDy=0;endFill=0;exitX=0.5;exitY=0;exitDx=0;exitDy=0;" edge="1" parent="1" source="v8TpoAdIlQ8JZEhRbZlm-25" target="v8TpoAdIlQ8JZEhRbZlm-15">
          <mxGeometry width="50" height="50" relative="1" as="geometry">
            <mxPoint x="450" y="610" as="sourcePoint" />
            <mxPoint x="500" y="560" as="targetPoint" />
          </mxGeometry>
        </mxCell>
        <mxCell id="v8TpoAdIlQ8JZEhRbZlm-47" value="chapter09.Account" style="swimlane;fontStyle=1;align=center;verticalAlign=top;childLayout=stackLayout;horizontal=1;startSize=26;horizontalStack=0;resizeParent=1;resizeParentMax=0;resizeLast=0;collapsible=1;marginBottom=0;whiteSpace=wrap;html=1;" vertex="1" parent="1">
          <mxGeometry x="360" y="1040" width="160" height="300" as="geometry" />
        </mxCell>
        <mxCell id="v8TpoAdIlQ8JZEhRbZlm-48" value="- id: int&lt;br&gt;- balance: double&lt;br&gt;&lt;i&gt;- annualInterestRate: double&lt;/i&gt;&lt;br&gt;- dateCreated: java.util.Date" style="text;strokeColor=none;fillColor=none;align=left;verticalAlign=top;spacingLeft=4;spacingRight=4;overflow=hidden;rotatable=0;points=[[0,0.5],[1,0.5]];portConstraint=eastwest;whiteSpace=wrap;html=1;" vertex="1" parent="v8TpoAdIlQ8JZEhRbZlm-47">
          <mxGeometry y="26" width="160" height="94" as="geometry" />
        </mxCell>
        <mxCell id="v8TpoAdIlQ8JZEhRbZlm-49" value="" style="line;strokeWidth=1;fillColor=none;align=left;verticalAlign=middle;spacingTop=-1;spacingLeft=3;spacingRight=3;rotatable=0;labelPosition=right;points=[];portConstraint=eastwest;strokeColor=inherit;" vertex="1" parent="v8TpoAdIlQ8JZEhRbZlm-47">
          <mxGeometry y="120" width="160" height="8" as="geometry" />
        </mxCell>
        <mxCell id="v8TpoAdIlQ8JZEhRbZlm-50" value="+ Account()&lt;br&gt;+ Account(id: int, initialBalance: int)&lt;br&gt;+ monthlyInterestRate(): double&lt;br&gt;+ getMonthlyInterest(): double&lt;br&gt;+ deposit(amount: double): void&lt;br&gt;+ withdraw(amount: double)&lt;br&gt;+ toString(): String" style="text;strokeColor=none;fillColor=none;align=left;verticalAlign=top;spacingLeft=4;spacingRight=4;overflow=hidden;rotatable=0;points=[[0,0.5],[1,0.5]];portConstraint=eastwest;whiteSpace=wrap;html=1;" vertex="1" parent="v8TpoAdIlQ8JZEhRbZlm-47">
          <mxGeometry y="128" width="160" height="172" as="geometry" />
        </mxCell>
        <mxCell id="v8TpoAdIlQ8JZEhRbZlm-51" value="CheckingAccount" style="swimlane;fontStyle=1;align=center;verticalAlign=top;childLayout=stackLayout;horizontal=1;startSize=26;horizontalStack=0;resizeParent=1;resizeParentMax=0;resizeLast=0;collapsible=1;marginBottom=0;whiteSpace=wrap;html=1;" vertex="1" parent="1">
          <mxGeometry x="160" y="1360" width="160" height="170" as="geometry" />
        </mxCell>
        <mxCell id="v8TpoAdIlQ8JZEhRbZlm-52" value="- overdraftLimit: double" style="text;strokeColor=none;fillColor=none;align=left;verticalAlign=top;spacingLeft=4;spacingRight=4;overflow=hidden;rotatable=0;points=[[0,0.5],[1,0.5]];portConstraint=eastwest;whiteSpace=wrap;html=1;" vertex="1" parent="v8TpoAdIlQ8JZEhRbZlm-51">
          <mxGeometry y="26" width="160" height="26" as="geometry" />
        </mxCell>
        <mxCell id="v8TpoAdIlQ8JZEhRbZlm-53" value="" style="line;strokeWidth=1;fillColor=none;align=left;verticalAlign=middle;spacingTop=-1;spacingLeft=3;spacingRight=3;rotatable=0;labelPosition=right;points=[];portConstraint=eastwest;strokeColor=inherit;" vertex="1" parent="v8TpoAdIlQ8JZEhRbZlm-51">
          <mxGeometry y="52" width="160" height="8" as="geometry" />
        </mxCell>
        <mxCell id="v8TpoAdIlQ8JZEhRbZlm-54" value="+ CheckingAccount(id: int, initialBalance: double, overdrawLimit: double)&lt;br&gt;+ withdraw(amount: double): void&lt;br&gt;+ toString(): String" style="text;strokeColor=none;fillColor=none;align=left;verticalAlign=top;spacingLeft=4;spacingRight=4;overflow=hidden;rotatable=0;points=[[0,0.5],[1,0.5]];portConstraint=eastwest;whiteSpace=wrap;html=1;" vertex="1" parent="v8TpoAdIlQ8JZEhRbZlm-51">
          <mxGeometry y="60" width="160" height="110" as="geometry" />
        </mxCell>
        <mxCell id="v8TpoAdIlQ8JZEhRbZlm-55" value="" style="endArrow=block;html=1;rounded=0;entryX=-0.021;entryY=0.457;entryDx=0;entryDy=0;entryPerimeter=0;exitX=0.5;exitY=0;exitDx=0;exitDy=0;endFill=0;" edge="1" parent="1" source="v8TpoAdIlQ8JZEhRbZlm-51" target="v8TpoAdIlQ8JZEhRbZlm-50">
          <mxGeometry width="50" height="50" relative="1" as="geometry">
            <mxPoint x="120" y="1300" as="sourcePoint" />
            <mxPoint x="170" y="1250" as="targetPoint" />
          </mxGeometry>
        </mxCell>
        <mxCell id="v8TpoAdIlQ8JZEhRbZlm-56" value="SavingsAccount" style="swimlane;fontStyle=1;align=center;verticalAlign=top;childLayout=stackLayout;horizontal=1;startSize=26;horizontalStack=0;resizeParent=1;resizeParentMax=0;resizeLast=0;collapsible=1;marginBottom=0;whiteSpace=wrap;html=1;" vertex="1" parent="1">
          <mxGeometry x="580" y="1360" width="160" height="150" as="geometry" />
        </mxCell>
        <mxCell id="v8TpoAdIlQ8JZEhRbZlm-57" value="- MIN_BALANCE: double" style="text;strokeColor=none;fillColor=none;align=left;verticalAlign=top;spacingLeft=4;spacingRight=4;overflow=hidden;rotatable=0;points=[[0,0.5],[1,0.5]];portConstraint=eastwest;whiteSpace=wrap;html=1;" vertex="1" parent="v8TpoAdIlQ8JZEhRbZlm-56">
          <mxGeometry y="26" width="160" height="26" as="geometry" />
        </mxCell>
        <mxCell id="v8TpoAdIlQ8JZEhRbZlm-58" value="" style="line;strokeWidth=1;fillColor=none;align=left;verticalAlign=middle;spacingTop=-1;spacingLeft=3;spacingRight=3;rotatable=0;labelPosition=right;points=[];portConstraint=eastwest;strokeColor=inherit;" vertex="1" parent="v8TpoAdIlQ8JZEhRbZlm-56">
          <mxGeometry y="52" width="160" height="8" as="geometry" />
        </mxCell>
        <mxCell id="v8TpoAdIlQ8JZEhRbZlm-59" value="+ SavingsAccount(id: int, initialBalance: double)&lt;br&gt;+ withdraw(amount: double): void" style="text;strokeColor=none;fillColor=none;align=left;verticalAlign=top;spacingLeft=4;spacingRight=4;overflow=hidden;rotatable=0;points=[[0,0.5],[1,0.5]];portConstraint=eastwest;whiteSpace=wrap;html=1;" vertex="1" parent="v8TpoAdIlQ8JZEhRbZlm-56">
          <mxGeometry y="60" width="160" height="90" as="geometry" />
        </mxCell>
        <mxCell id="v8TpoAdIlQ8JZEhRbZlm-60" value="" style="endArrow=block;html=1;rounded=0;entryX=1.007;entryY=0.436;entryDx=0;entryDy=0;entryPerimeter=0;exitX=0.5;exitY=0;exitDx=0;exitDy=0;endFill=0;" edge="1" parent="1" source="v8TpoAdIlQ8JZEhRbZlm-56" target="v8TpoAdIlQ8JZEhRbZlm-50">
          <mxGeometry width="50" height="50" relative="1" as="geometry">
            <mxPoint x="650" y="1360" as="sourcePoint" />
            <mxPoint x="700" y="1310" as="targetPoint" />
          </mxGeometry>
        </mxCell>
        <mxCell id="v8TpoAdIlQ8JZEhRbZlm-61" value="chapter11.Course" style="swimlane;fontStyle=1;align=center;verticalAlign=top;childLayout=stackLayout;horizontal=1;startSize=26;horizontalStack=0;resizeParent=1;resizeParentMax=0;resizeLast=0;collapsible=1;marginBottom=0;whiteSpace=wrap;html=1;" vertex="1" parent="1">
          <mxGeometry x="200" y="1650" width="270" height="200" as="geometry" />
        </mxCell>
        <mxCell id="v8TpoAdIlQ8JZEhRbZlm-62" value="- courseName: String&lt;br&gt;- students: java.util.ArrayList" style="text;strokeColor=none;fillColor=none;align=left;verticalAlign=top;spacingLeft=4;spacingRight=4;overflow=hidden;rotatable=0;points=[[0,0.5],[1,0.5]];portConstraint=eastwest;whiteSpace=wrap;html=1;" vertex="1" parent="v8TpoAdIlQ8JZEhRbZlm-61">
          <mxGeometry y="26" width="270" height="44" as="geometry" />
        </mxCell>
        <mxCell id="v8TpoAdIlQ8JZEhRbZlm-63" value="" style="line;strokeWidth=1;fillColor=none;align=left;verticalAlign=middle;spacingTop=-1;spacingLeft=3;spacingRight=3;rotatable=0;labelPosition=right;points=[];portConstraint=eastwest;strokeColor=inherit;" vertex="1" parent="v8TpoAdIlQ8JZEhRbZlm-61">
          <mxGeometry y="70" width="270" height="8" as="geometry" />
        </mxCell>
        <mxCell id="v8TpoAdIlQ8JZEhRbZlm-64" value="+ Course(courseName: String)&lt;br&gt;+ addStudent(student: String): void&lt;br&gt;+ dropStudent(student: String): void&lt;br&gt;+ getCourseName(): String&lt;br&gt;+ getStudents(): String[]&lt;br&gt;+ clear(): void&lt;br&gt;+ getNumberOfStudents(): int" style="text;strokeColor=none;fillColor=none;align=left;verticalAlign=top;spacingLeft=4;spacingRight=4;overflow=hidden;rotatable=0;points=[[0,0.5],[1,0.5]];portConstraint=eastwest;whiteSpace=wrap;html=1;" vertex="1" parent="v8TpoAdIlQ8JZEhRbZlm-61">
          <mxGeometry y="78" width="270" height="122" as="geometry" />
        </mxCell>
        <mxCell id="v8TpoAdIlQ8JZEhRbZlm-65" value="&lt;h1&gt;Exercise 01&lt;/h1&gt;" style="text;html=1;strokeColor=none;fillColor=none;spacing=5;spacingTop=-20;whiteSpace=wrap;overflow=hidden;rounded=0;" vertex="1" parent="1">
          <mxGeometry y="-220" width="190" height="54" as="geometry" />
        </mxCell>
        <mxCell id="v8TpoAdIlQ8JZEhRbZlm-66" value="&lt;h1&gt;Exercise 02&lt;/h1&gt;" style="text;html=1;strokeColor=none;fillColor=none;spacing=5;spacingTop=-20;whiteSpace=wrap;overflow=hidden;rounded=0;" vertex="1" parent="1">
          <mxGeometry y="380" width="190" height="54" as="geometry" />
        </mxCell>
        <mxCell id="v8TpoAdIlQ8JZEhRbZlm-67" value="&lt;h1&gt;Exercise 03&lt;/h1&gt;" style="text;html=1;strokeColor=none;fillColor=none;spacing=5;spacingTop=-20;whiteSpace=wrap;overflow=hidden;rounded=0;" vertex="1" parent="1">
          <mxGeometry x="10" y="1040" width="190" height="54" as="geometry" />
        </mxCell>
        <mxCell id="v8TpoAdIlQ8JZEhRbZlm-68" value="&lt;h1&gt;Exercise 05&lt;/h1&gt;" style="text;html=1;strokeColor=none;fillColor=none;spacing=5;spacingTop=-20;whiteSpace=wrap;overflow=hidden;rounded=0;" vertex="1" parent="1">
          <mxGeometry x="10" y="1650" width="190" height="54" as="geometry" />
        </mxCell>
        <mxCell id="v8TpoAdIlQ8JZEhRbZlm-78" style="edgeStyle=orthogonalEdgeStyle;rounded=0;orthogonalLoop=1;jettySize=auto;html=1;endArrow=diamond;endFill=1;" edge="1" parent="1" source="v8TpoAdIlQ8JZEhRbZlm-69" target="v8TpoAdIlQ8JZEhRbZlm-74">
          <mxGeometry relative="1" as="geometry" />
        </mxCell>
        <mxCell id="v8TpoAdIlQ8JZEhRbZlm-83" style="edgeStyle=orthogonalEdgeStyle;rounded=0;orthogonalLoop=1;jettySize=auto;html=1;endArrow=block;endFill=0;" edge="1" parent="1" source="v8TpoAdIlQ8JZEhRbZlm-69" target="v8TpoAdIlQ8JZEhRbZlm-79">
          <mxGeometry relative="1" as="geometry" />
        </mxCell>
        <mxCell id="v8TpoAdIlQ8JZEhRbZlm-69" value="PersonalAccount" style="swimlane;fontStyle=1;align=center;verticalAlign=top;childLayout=stackLayout;horizontal=1;startSize=26;horizontalStack=0;resizeParent=1;resizeParentMax=0;resizeLast=0;collapsible=1;marginBottom=0;whiteSpace=wrap;html=1;" vertex="1" parent="1">
          <mxGeometry x="205" y="2300" width="270" height="140" as="geometry" />
        </mxCell>
        <mxCell id="v8TpoAdIlQ8JZEhRbZlm-70" value="- name: String&lt;br&gt;- transactions: java.util.ArrayList" style="text;strokeColor=none;fillColor=none;align=left;verticalAlign=top;spacingLeft=4;spacingRight=4;overflow=hidden;rotatable=0;points=[[0,0.5],[1,0.5]];portConstraint=eastwest;whiteSpace=wrap;html=1;" vertex="1" parent="v8TpoAdIlQ8JZEhRbZlm-69">
          <mxGeometry y="26" width="270" height="44" as="geometry" />
        </mxCell>
        <mxCell id="v8TpoAdIlQ8JZEhRbZlm-71" value="" style="line;strokeWidth=1;fillColor=none;align=left;verticalAlign=middle;spacingTop=-1;spacingLeft=3;spacingRight=3;rotatable=0;labelPosition=right;points=[];portConstraint=eastwest;strokeColor=inherit;" vertex="1" parent="v8TpoAdIlQ8JZEhRbZlm-69">
          <mxGeometry y="70" width="270" height="8" as="geometry" />
        </mxCell>
        <mxCell id="v8TpoAdIlQ8JZEhRbZlm-72" value="+ PersonalAccount(id: int, initialBalance: int, name: String)&lt;br&gt;+ toString(): String" style="text;strokeColor=none;fillColor=none;align=left;verticalAlign=top;spacingLeft=4;spacingRight=4;overflow=hidden;rotatable=0;points=[[0,0.5],[1,0.5]];portConstraint=eastwest;whiteSpace=wrap;html=1;" vertex="1" parent="v8TpoAdIlQ8JZEhRbZlm-69">
          <mxGeometry y="78" width="270" height="62" as="geometry" />
        </mxCell>
        <mxCell id="v8TpoAdIlQ8JZEhRbZlm-73" value="&lt;h1&gt;Exercise 08&lt;/h1&gt;" style="text;html=1;strokeColor=none;fillColor=none;spacing=5;spacingTop=-20;whiteSpace=wrap;overflow=hidden;rounded=0;" vertex="1" parent="1">
          <mxGeometry y="1920" width="190" height="54" as="geometry" />
        </mxCell>
        <mxCell id="v8TpoAdIlQ8JZEhRbZlm-74" value="Transaction" style="swimlane;fontStyle=1;align=center;verticalAlign=top;childLayout=stackLayout;horizontal=1;startSize=26;horizontalStack=0;resizeParent=1;resizeParentMax=0;resizeLast=0;collapsible=1;marginBottom=0;whiteSpace=wrap;html=1;" vertex="1" parent="1">
          <mxGeometry x="580" y="2275" width="160" height="190" as="geometry" />
        </mxCell>
        <mxCell id="v8TpoAdIlQ8JZEhRbZlm-75" value="- date: java.util.Date&lt;br&gt;- type: char&lt;br&gt;- amount: double&lt;br&gt;- balance: double&lt;br&gt;- description: String" style="text;strokeColor=none;fillColor=none;align=left;verticalAlign=top;spacingLeft=4;spacingRight=4;overflow=hidden;rotatable=0;points=[[0,0.5],[1,0.5]];portConstraint=eastwest;whiteSpace=wrap;html=1;" vertex="1" parent="v8TpoAdIlQ8JZEhRbZlm-74">
          <mxGeometry y="26" width="160" height="94" as="geometry" />
        </mxCell>
        <mxCell id="v8TpoAdIlQ8JZEhRbZlm-76" value="" style="line;strokeWidth=1;fillColor=none;align=left;verticalAlign=middle;spacingTop=-1;spacingLeft=3;spacingRight=3;rotatable=0;labelPosition=right;points=[];portConstraint=eastwest;strokeColor=inherit;" vertex="1" parent="v8TpoAdIlQ8JZEhRbZlm-74">
          <mxGeometry y="120" width="160" height="8" as="geometry" />
        </mxCell>
        <mxCell id="v8TpoAdIlQ8JZEhRbZlm-77" value="+ Transaction (type: char, amount: double, balance: double, description: String)" style="text;strokeColor=none;fillColor=none;align=left;verticalAlign=top;spacingLeft=4;spacingRight=4;overflow=hidden;rotatable=0;points=[[0,0.5],[1,0.5]];portConstraint=eastwest;whiteSpace=wrap;html=1;" vertex="1" parent="v8TpoAdIlQ8JZEhRbZlm-74">
          <mxGeometry y="128" width="160" height="62" as="geometry" />
        </mxCell>
        <mxCell id="v8TpoAdIlQ8JZEhRbZlm-79" value="chapter09.Account" style="swimlane;fontStyle=1;align=center;verticalAlign=top;childLayout=stackLayout;horizontal=1;startSize=26;horizontalStack=0;resizeParent=1;resizeParentMax=0;resizeLast=0;collapsible=1;marginBottom=0;whiteSpace=wrap;html=1;" vertex="1" parent="1">
          <mxGeometry x="200" y="1950" width="280" height="260" as="geometry" />
        </mxCell>
        <mxCell id="v8TpoAdIlQ8JZEhRbZlm-80" value="- id: int&lt;br&gt;- balance: double&lt;br&gt;&lt;i&gt;- annualInterestRate: double&lt;/i&gt;&lt;br&gt;- dateCreated: java.util.Date" style="text;strokeColor=none;fillColor=none;align=left;verticalAlign=top;spacingLeft=4;spacingRight=4;overflow=hidden;rotatable=0;points=[[0,0.5],[1,0.5]];portConstraint=eastwest;whiteSpace=wrap;html=1;" vertex="1" parent="v8TpoAdIlQ8JZEhRbZlm-79">
          <mxGeometry y="26" width="280" height="94" as="geometry" />
        </mxCell>
        <mxCell id="v8TpoAdIlQ8JZEhRbZlm-81" value="" style="line;strokeWidth=1;fillColor=none;align=left;verticalAlign=middle;spacingTop=-1;spacingLeft=3;spacingRight=3;rotatable=0;labelPosition=right;points=[];portConstraint=eastwest;strokeColor=inherit;" vertex="1" parent="v8TpoAdIlQ8JZEhRbZlm-79">
          <mxGeometry y="120" width="280" height="8" as="geometry" />
        </mxCell>
        <mxCell id="v8TpoAdIlQ8JZEhRbZlm-82" value="+ Account()&lt;br&gt;+ Account(id: int, initialBalance: int)&lt;br&gt;+ monthlyInterestRate(): double&lt;br&gt;+ getMonthlyInterest(): double&lt;br&gt;+ deposit(amount: double): void&lt;br&gt;+ withdraw(amount: double)&lt;br&gt;+ toString(): String" style="text;strokeColor=none;fillColor=none;align=left;verticalAlign=top;spacingLeft=4;spacingRight=4;overflow=hidden;rotatable=0;points=[[0,0.5],[1,0.5]];portConstraint=eastwest;whiteSpace=wrap;html=1;" vertex="1" parent="v8TpoAdIlQ8JZEhRbZlm-79">
          <mxGeometry y="128" width="280" height="132" as="geometry" />
        </mxCell>
      </root>
    </mxGraphModel>
  </diagram>
</mxfile>
